<svg width="93" height="24" viewBox="0 0 93 24" fill="none" xmlns="http://www.w3.org/2000/svg">
<g clip-path="url(#clip0_231_512)">
<path d="M0 0H16V8H8L0 0ZM0 8H8L16 16H8V24L0 16V8Z" fill="white"/>
</g>
<path d="M28.5714 4.57143H32.9525L36.263 14.3049H36.3027L39.4348 4.57143H43.8159V18.7256H40.9018V8.69477H40.8621L37.393 18.7256H34.9943L31.5252 8.79389H31.4855V18.7256H28.5714V4.57143Z" fill="white"/>
<path d="M48.7565 13.6111C48.7565 14.0208 48.7961 14.4238 48.8754 14.8203C48.9547 15.2036 49.0869 15.5538 49.2719 15.871C49.4702 16.1749 49.7279 16.4194 50.045 16.6045C50.3622 16.7895 50.7587 16.882 51.2345 16.882C51.7102 16.882 52.1067 16.7895 52.4239 16.6045C52.7543 16.4194 53.012 16.1749 53.197 15.871C53.3953 15.5538 53.534 15.2036 53.6133 14.8203C53.6926 14.4238 53.7323 14.0208 53.7323 13.6111C53.7323 13.2014 53.6926 12.7983 53.6133 12.4018C53.534 12.0053 53.3953 11.6551 53.197 11.3512C53.012 11.0472 52.7543 10.8027 52.4239 10.6177C52.1067 10.4194 51.7102 10.3203 51.2345 10.3203C50.7587 10.3203 50.3622 10.4194 50.045 10.6177C49.7279 10.8027 49.4702 11.0472 49.2719 11.3512C49.0869 11.6551 48.9547 12.0053 48.8754 12.4018C48.7961 12.7983 48.7565 13.2014 48.7565 13.6111ZM45.9415 13.6111C45.9415 12.7917 46.0671 12.0516 46.3182 11.3908C46.5693 10.7168 46.9261 10.1485 47.3887 9.68596C47.8512 9.21019 48.4063 8.84675 49.0539 8.59565C49.7014 8.33133 50.4283 8.19918 51.2345 8.19918C52.0406 8.19918 52.7675 8.33133 53.4151 8.59565C54.0759 8.84675 54.6375 9.21019 55.1001 9.68596C55.5627 10.1485 55.9195 10.7168 56.1706 11.3908C56.4217 12.0516 56.5472 12.7917 56.5472 13.6111C56.5472 14.4304 56.4217 15.1705 56.1706 15.8313C55.9195 16.4921 55.5627 17.0604 55.1001 17.5362C54.6375 17.9987 54.0759 18.3556 53.4151 18.6067C52.7675 18.8578 52.0406 18.9833 51.2345 18.9833C50.4283 18.9833 49.7014 18.8578 49.0539 18.6067C48.4063 18.3556 47.8512 17.9987 47.3887 17.5362C46.9261 17.0604 46.5693 16.4921 46.3182 15.8313C46.0671 15.1705 45.9415 14.4304 45.9415 13.6111Z" fill="white"/>
<path d="M61.9458 8.47671H64.0075V10.36H61.9458V15.4349C61.9458 15.9106 62.0251 16.2278 62.1837 16.3864C62.3423 16.545 62.6595 16.6243 63.1352 16.6243C63.2938 16.6243 63.4458 16.6177 63.5912 16.6045C63.7366 16.5912 63.8753 16.5714 64.0075 16.545V18.7256C63.7696 18.7652 63.5053 18.7917 63.2145 18.8049C62.9238 18.8181 62.6396 18.8247 62.3621 18.8247C61.926 18.8247 61.5097 18.7917 61.1132 18.7256C60.7299 18.6727 60.3863 18.5604 60.0824 18.3886C59.7916 18.2168 59.5603 17.9723 59.3885 17.6551C59.2167 17.3379 59.1308 16.9216 59.1308 16.4062V10.36H57.426V8.47671H59.1308V5.40402H61.9458V8.47671Z" fill="white"/>
<path d="M68.2411 6.89081H65.4261V4.57143H68.2411V6.89081ZM65.4261 8.47671H68.2411V18.7256H65.4261V8.47671Z" fill="white"/>
<path d="M72.9554 13.6111C72.9554 14.0208 72.9951 14.4238 73.0744 14.8203C73.1537 15.2036 73.2858 15.5538 73.4708 15.871C73.6691 16.1749 73.9268 16.4194 74.244 16.6045C74.5612 16.7895 74.9576 16.882 75.4334 16.882C75.9092 16.882 76.3056 16.7895 76.6228 16.6045C76.9532 16.4194 77.2109 16.1749 77.3959 15.871C77.5942 15.5538 77.733 15.2036 77.8122 14.8203C77.8915 14.4238 77.9312 14.0208 77.9312 13.6111C77.9312 13.2014 77.8915 12.7983 77.8122 12.4018C77.733 12.0053 77.5942 11.6551 77.3959 11.3512C77.2109 11.0472 76.9532 10.8027 76.6228 10.6177C76.3056 10.4194 75.9092 10.3203 75.4334 10.3203C74.9576 10.3203 74.5612 10.4194 74.244 10.6177C73.9268 10.8027 73.6691 11.0472 73.4708 11.3512C73.2858 11.6551 73.1537 12.0053 73.0744 12.4018C72.9951 12.7983 72.9554 13.2014 72.9554 13.6111ZM70.1405 13.6111C70.1405 12.7917 70.266 12.0516 70.5171 11.3908C70.7682 10.7168 71.125 10.1485 71.5876 9.68596C72.0501 9.21019 72.6052 8.84675 73.2528 8.59565C73.9004 8.33133 74.6272 8.19918 75.4334 8.19918C76.2396 8.19918 76.9664 8.33133 77.614 8.59565C78.2748 8.84675 78.8365 9.21019 79.299 9.68596C79.7616 10.1485 80.1184 10.7168 80.3695 11.3908C80.6206 12.0516 80.7462 12.7917 80.7462 13.6111C80.7462 14.4304 80.6206 15.1705 80.3695 15.8313C80.1184 16.4921 79.7616 17.0604 79.299 17.5362C78.8365 17.9987 78.2748 18.3556 77.614 18.6067C76.9664 18.8578 76.2396 18.9833 75.4334 18.9833C74.6272 18.9833 73.9004 18.8578 73.2528 18.6067C72.6052 18.3556 72.0501 17.9987 71.5876 17.5362C71.125 17.0604 70.7682 16.4921 70.5171 15.8313C70.266 15.1705 70.1405 14.4304 70.1405 13.6111Z" fill="white"/>
<path d="M82.5765 8.47671H85.2527V9.90402H85.3121C85.669 9.30931 86.1315 8.87979 86.6998 8.61547C87.2681 8.33794 87.8496 8.19918 88.4443 8.19918C89.1976 8.19918 89.8121 8.3049 90.2879 8.51636C90.7769 8.71459 91.1601 8.99873 91.4377 9.36878C91.7152 9.72561 91.9068 10.1683 92.0126 10.697C92.1315 11.2124 92.191 11.7873 92.191 12.4216V18.7256H89.376V12.9371C89.376 12.0912 89.2438 11.4635 88.9795 11.0538C88.7152 10.6309 88.2461 10.4194 87.572 10.4194C86.8055 10.4194 86.2505 10.6507 85.9068 11.1133C85.5632 11.5626 85.3914 12.3093 85.3914 13.3534V18.7256H82.5765V8.47671Z" fill="white"/>
<defs>
<clipPath id="clip0_231_512">
<rect width="16" height="24" fill="white"/>
</clipPath>
</defs>
</svg>
