<svg width="138" height="24" viewBox="0 0 138 24" fill="none" xmlns="http://www.w3.org/2000/svg">
<g clip-path="url(#clip0_231_516)">
<mask id="mask0_231_516" style="mask-type:luminance" maskUnits="userSpaceOnUse" x="0" y="0" width="138" height="24">
<path d="M0 0H138V24H0V0Z" fill="white"/>
</mask>
<g mask="url(#mask0_231_516)">
<path d="M37.3343 7.80749C35.8455 7.80749 34.6635 8.35499 33.9413 9.49349V3.71249H31.5773V19.0402H33.9413V13.1722C33.9413 10.9387 35.1668 10.0192 36.7208 10.0192C38.2095 10.0192 39.1733 10.8945 39.1733 12.5587V19.0402H41.5365V12.318C41.5365 9.47174 39.786 7.80749 37.3343 7.80749ZM45.396 14.5732H54.108C54.1515 14.2665 54.1958 13.9162 54.1958 13.5877C54.1958 10.4347 51.963 7.80749 48.7013 7.80749C45.2648 7.80749 42.9225 10.3252 42.9225 13.566C42.9225 16.851 45.2648 19.3245 48.876 19.3245C51.021 19.3245 52.6635 18.4267 53.67 16.938L51.7223 15.7995C51.1973 16.566 50.2118 17.157 48.8985 17.157C47.1473 17.157 45.768 16.281 45.396 14.5732ZM45.3735 12.6457C45.702 11.004 46.9065 9.95324 48.6795 9.95324C50.1023 9.95324 51.4808 10.7632 51.8093 12.6457H45.375H45.3735ZM64.3328 8.09249V9.64649C63.5003 8.50799 62.2095 7.80749 60.5018 7.80749C57.5243 7.80749 55.0515 10.3035 55.0515 13.566C55.0515 16.806 57.525 19.3245 60.5018 19.3245C62.2095 19.3245 63.501 18.624 64.3328 17.4637V19.0402H66.6968V8.09174H64.3328V8.09249ZM60.8738 17.07C58.9043 17.07 57.4155 15.6022 57.4155 13.566C57.4155 11.5297 58.9043 10.0627 60.8738 10.0627C62.844 10.0627 64.3328 11.5297 64.3328 13.566C64.3328 15.6022 62.844 17.07 60.8738 17.07ZM77.5733 3.71249V9.64649C76.7415 8.50799 75.45 7.80749 73.7423 7.80749C70.7655 7.80749 68.292 10.3035 68.292 13.566C68.292 16.806 70.7655 19.3245 73.7423 19.3245C75.45 19.3245 76.7415 18.624 77.5733 17.4637V19.0402H79.9373V3.71249H77.5733ZM74.115 17.07C72.1448 17.07 70.656 15.6022 70.656 13.566C70.656 11.5297 72.1448 10.0627 74.115 10.0627C76.0845 10.0627 77.5733 11.5297 77.5733 13.566C77.5733 15.6022 76.0845 17.07 74.115 17.07ZM82.1453 19.0402H84.51V3.05624H82.1453V19.0402ZM88.5683 14.5732H97.2803C97.3238 14.2665 97.368 13.9162 97.368 13.5877C97.368 10.4347 95.1353 7.80749 91.8735 7.80749C88.437 7.80749 86.0948 10.3252 86.0948 13.566C86.0948 16.851 88.437 19.3245 92.0483 19.3245C94.1933 19.3245 95.835 18.4267 96.8423 16.938L94.8938 15.7995C94.3688 16.566 93.384 17.157 92.07 17.157C90.3195 17.157 88.9403 16.281 88.5683 14.5732ZM88.5458 12.6457C88.8743 11.004 90.0788 9.95324 91.8518 9.95324C93.2745 9.95324 94.653 10.7632 94.9815 12.6457H88.5458ZM100.596 11.1135C100.596 10.326 101.341 9.95324 102.194 9.95324C103.092 9.95324 103.858 10.347 104.252 11.2012L106.244 10.0845C105.478 8.63924 103.989 7.80749 102.194 7.80749C99.9615 7.80749 98.1885 9.09899 98.1885 11.1577C98.1885 15.0765 104.077 13.9822 104.077 15.9307C104.077 16.8067 103.267 17.157 102.216 17.157C101.012 17.157 100.137 16.566 99.7868 15.5805L97.7505 16.7625C98.451 18.339 100.028 19.3245 102.216 19.3245C104.58 19.3245 106.485 18.1425 106.485 15.9525C106.485 11.9025 100.596 13.1062 100.596 11.1135ZM109.476 11.1135C109.476 10.326 110.221 9.95324 111.074 9.95324C111.971 9.95324 112.738 10.347 113.132 11.2012L115.124 10.0845C114.358 8.63924 112.869 7.80749 111.074 7.80749C108.842 7.80749 107.069 9.09899 107.069 11.1577C107.069 15.0765 112.957 13.9822 112.957 15.9307C112.957 16.8067 112.147 17.157 111.096 17.157C109.892 17.157 109.016 16.566 108.666 15.5805L106.631 16.7625C107.331 18.339 108.907 19.3245 111.096 19.3245C113.46 19.3245 115.364 18.1425 115.364 15.9525C115.364 11.9025 109.476 13.1062 109.476 11.1135ZM127.508 16.515C129.148 16.515 130.362 15.534 130.362 13.9252V8.90774H128.892V13.8082C128.892 14.5327 128.509 15.0757 127.508 15.0757C126.506 15.0757 126.122 14.5327 126.122 13.8082V8.90699H124.664V13.9252C124.664 15.534 125.878 16.515 127.508 16.515ZM131.899 8.90699V16.365H133.369V8.90699H131.899Z" fill="white"/>
<path fill-rule="evenodd" clip-rule="evenodd" d="M132.785 5.33025H125.177C124.369 5.33045 123.595 5.65117 123.025 6.22189C122.454 6.79262 122.133 7.56663 122.133 8.37375V15.9848C122.133 16.7919 122.454 17.5659 123.025 18.1366C123.595 18.7073 124.369 19.0281 125.177 19.0283H132.785C133.592 19.0281 134.366 18.7073 134.936 18.1366C135.507 17.5659 135.828 16.7919 135.828 15.9848V8.3745C135.828 7.97473 135.75 7.57885 135.597 7.20946C135.444 6.84008 135.22 6.50443 134.937 6.22168C134.654 5.93892 134.319 5.7146 133.949 5.56152C133.58 5.40844 133.184 5.33035 132.785 5.33025ZM125.177 3.80775C124.577 3.80785 123.983 3.92603 123.43 4.15555C122.876 4.38507 122.373 4.72142 121.949 5.14542C121.525 5.56941 121.189 6.07273 120.959 6.62665C120.73 7.18057 120.612 7.77424 120.612 8.37375V15.9848C120.612 16.5843 120.73 17.1779 120.959 17.7319C121.189 18.2858 121.525 18.7891 121.949 19.2131C122.373 19.6371 122.876 19.9734 123.43 20.203C123.983 20.4325 124.577 20.5507 125.177 20.5508H132.785C133.384 20.5508 133.978 20.4326 134.532 20.2032C135.086 19.9737 135.589 19.6374 136.013 19.2134C136.437 18.7894 136.773 18.286 137.003 17.732C137.232 17.1781 137.35 16.5843 137.35 15.9848V8.3745C137.35 7.77486 137.232 7.18105 137.003 6.627C136.773 6.07294 136.437 5.5695 136.013 5.14542C135.589 4.72133 135.086 4.38493 134.532 4.15541C133.978 3.92589 133.384 3.80775 132.785 3.80775H125.177Z" fill="white"/>
<path fill-rule="evenodd" clip-rule="evenodd" d="M125.177 5.33025H132.785C133.592 5.33045 134.366 5.65117 134.936 6.22189C135.507 6.79262 135.828 7.56663 135.828 8.37375V15.9848C135.828 16.7919 135.507 17.5659 134.936 18.1366C134.366 18.7073 133.592 19.0281 132.785 19.0283H125.177C124.369 19.0281 123.595 18.7073 123.025 18.1366C122.454 17.5659 122.133 16.7919 122.133 15.9848V8.3745C122.133 7.97473 122.212 7.57885 122.365 7.20946C122.517 6.84008 122.742 6.50443 123.024 6.22168C123.307 5.93892 123.642 5.7146 124.012 5.56152C124.381 5.40844 124.777 5.33035 125.177 5.33025ZM120.612 8.37375C120.612 7.77424 120.73 7.18057 120.959 6.62665C121.189 6.07273 121.525 5.56941 121.949 5.14542C122.373 4.72142 122.876 4.38507 123.43 4.15555C123.983 3.92603 124.577 3.80785 125.177 3.80775H132.785C133.384 3.80775 133.978 3.92586 134.532 4.15534C135.086 4.38481 135.589 4.72115 136.013 5.14515C136.437 5.56915 136.773 6.07251 137.003 6.62648C137.232 7.18045 137.35 7.77417 137.35 8.37375V15.9848C137.35 16.5843 137.232 17.1781 137.003 17.732C136.773 18.286 136.437 18.7894 136.013 19.2134C135.589 19.6374 135.086 19.9737 134.532 20.2032C133.978 20.4326 133.384 20.5508 132.785 20.5508H125.177C124.577 20.5507 123.983 20.4325 123.43 20.203C122.876 19.9734 122.373 19.6371 121.949 19.2131C121.525 18.7891 121.189 18.2858 120.959 17.7319C120.73 17.1779 120.612 16.5843 120.612 15.9848V8.3745V8.37375Z" fill="white"/>
<path d="M4.87122 14.9122L19.5112 10.0237C19.2187 8.19375 19.0102 6.97125 18.7687 6.03825C18.5085 5.03475 18.3022 4.76625 18.2212 4.67325C17.9389 4.35016 17.5875 4.09483 17.193 3.92625C17.079 3.8775 16.7595 3.76425 15.726 3.8265C14.6325 3.8925 13.197 4.116 10.9237 4.476C8.65122 4.836 7.21647 5.06775 6.15672 5.34225C5.15397 5.6025 4.88472 5.8095 4.79172 5.8905C4.46922 6.17325 4.21422 6.52425 4.04547 6.91875C3.99672 7.03275 3.88347 7.35225 3.94572 8.3865C4.01172 9.48 4.23522 10.9162 4.59522 13.1895C4.69572 13.827 4.78647 14.397 4.87122 14.9122Z" fill="white"/>
<path fill-rule="evenodd" clip-rule="evenodd" d="M0.834761 13.785C0.138761 9.387 -0.209989 7.188 0.544511 5.4225C0.937824 4.50171 1.53358 3.68139 2.28751 3.0225C3.73276 1.76025 5.93101 1.41225 10.3275 0.715499C14.7255 0.0179991 16.9238 -0.330001 18.69 0.424499C19.6103 0.81794 20.4301 1.41369 21.0885 2.1675C22.3515 3.6135 22.6995 5.8125 23.3955 10.2112C24.0923 14.6092 24.4403 16.809 23.6858 18.5737C23.2927 19.4945 22.6972 20.3148 21.9435 20.9737C20.4983 22.2367 18.2993 22.5847 13.902 23.2815C9.50551 23.9782 7.30651 24.3263 5.54176 23.5718C4.62149 23.1783 3.80169 22.5825 3.14326 21.8287C1.88026 20.3827 1.53151 18.1837 0.834761 13.785ZM8.59051 21.5955C9.76801 21.5242 11.2845 21.2865 13.5293 20.931C15.7748 20.5755 17.289 20.3325 18.432 20.0362C19.5383 19.749 20.0483 19.4693 20.3775 19.1813C20.8619 18.7576 21.2446 18.2303 21.4973 17.6385C21.6698 17.2365 21.7785 16.665 21.7095 15.5235C21.6383 14.346 21.4005 12.8287 21.045 10.5832C20.6895 8.33775 20.4473 6.822 20.151 5.67975C19.8638 4.57275 19.5833 4.06275 19.296 3.7335C18.8727 3.2489 18.3457 2.86591 17.754 2.613C17.352 2.4405 16.7805 2.33175 15.639 2.40075C14.4615 2.472 12.9458 2.70975 10.7003 3.06525C8.45551 3.4215 6.94051 3.66375 5.79826 3.96C4.69126 4.24725 4.18201 4.52775 3.85276 4.815C3.36811 5.23855 2.98512 5.76585 2.73226 6.35775C2.56051 6.75975 2.45176 7.33125 2.52076 8.47275C2.59201 9.651 2.82901 11.1675 3.18526 13.413C3.54076 15.6585 3.78301 17.1743 4.07926 18.3165C4.36651 19.4235 4.64626 19.9335 4.93426 20.2627C5.35757 20.7473 5.88462 21.1303 6.47626 21.3832C6.87826 21.5557 7.44826 21.6645 8.59051 21.5955Z" fill="white"/>
</g>
</g>
<defs>
<clipPath id="clip0_231_516">
<rect width="138" height="24" fill="white"/>
</clipPath>
</defs>
</svg>
