<svg width="119" height="24" viewBox="0 0 119 24" fill="none" xmlns="http://www.w3.org/2000/svg">
<g clip-path="url(#clip0_231_497)">
<path d="M78.5757 0.00991821H99.1641V3.81H90.9969V23.8017H86.913V3.81H78.5757V0.00991821Z" fill="white"/>
<path d="M44.7156 0.00991821V3.81H28.2127V9.92316H41.4843V13.7232H28.2127V20.0016H44.7156V23.8017H24.129V3.81H24.1273V0.00991821H44.7156Z" fill="white"/>
<path d="M54.9961 0.0198517H49.6519L68.7937 23.8116H74.1535L64.5814 11.9239L74.1382 0.0380033L68.7937 0.0462623L61.9057 8.60092L54.9961 0.0198517Z" fill="white"/>
<path d="M60.48 17.0144L57.8037 13.6869L49.6365 23.8298H54.996L60.48 17.0144Z" fill="white"/>
<path fill-rule="evenodd" clip-rule="evenodd" d="M24.2721 23.8017L5.10453 0H0V23.7918H4.08363V5.08548L19.142 23.8017H24.2721Z" fill="white"/>
<path d="M100.082 23.6564C99.783 23.6564 99.5287 23.5528 99.3157 23.3456C99.1027 23.1384 98.9974 22.8875 99.0001 22.5903C98.9974 22.3013 99.1027 22.0532 99.3157 21.846C99.5287 21.6388 99.783 21.5351 100.082 21.5351C100.37 21.5351 100.622 21.6388 100.835 21.846C101.051 22.0532 101.158 22.3013 101.161 22.5903C101.158 22.7866 101.108 22.9666 101.009 23.1274C100.907 23.291 100.777 23.4192 100.613 23.5119C100.453 23.6073 100.276 23.6564 100.082 23.6564Z" fill="white"/>
<path d="M107.052 13.6336H108.862V20.6054C108.859 21.2461 108.72 21.7942 108.449 22.255C108.175 22.7157 107.796 23.0674 107.309 23.3155C106.825 23.5609 106.258 23.6864 105.613 23.6864C105.024 23.6864 104.495 23.58 104.025 23.3728C103.555 23.1656 103.181 22.8548 102.907 22.4458C102.63 22.0368 102.495 21.527 102.495 20.9162H104.307C104.31 21.1834 104.371 21.4151 104.487 21.6087C104.603 21.8023 104.764 21.9495 104.968 22.0531C105.176 22.1568 105.414 22.2086 105.682 22.2086C105.973 22.2086 106.222 22.1486 106.424 22.0259C106.626 21.9059 106.781 21.726 106.889 21.486C106.994 21.2489 107.049 20.9544 107.052 20.6054V13.6336Z" fill="white"/>
<path d="M116.307 16.3601C116.263 15.9375 116.069 15.6076 115.732 15.3731C115.391 15.1359 114.952 15.0187 114.412 15.0187C114.033 15.0187 113.707 15.076 113.435 15.1877C113.164 15.3023 112.954 15.4549 112.81 15.6485C112.666 15.8421 112.594 16.063 112.589 16.3111C112.589 16.5183 112.638 16.6982 112.735 16.8482C112.832 17.0009 112.962 17.129 113.131 17.2327C113.297 17.339 113.482 17.4262 113.684 17.4971C113.889 17.568 114.094 17.628 114.299 17.6771L115.242 17.9088C115.621 17.9961 115.989 18.1133 116.341 18.2633C116.692 18.4105 117.01 18.5987 117.29 18.8249C117.569 19.0513 117.791 19.3239 117.954 19.6429C118.117 19.9619 118.2 20.3354 118.2 20.7662C118.2 21.347 118.051 21.8569 117.749 22.2985C117.447 22.7375 117.013 23.0811 116.443 23.3292C115.876 23.5746 115.19 23.7 114.382 23.7C113.601 23.7 112.921 23.5801 112.348 23.3401C111.773 23.1029 111.324 22.7539 111 22.2958C110.677 21.8378 110.502 21.2788 110.477 20.6217H112.271C112.295 20.9653 112.406 21.2516 112.594 21.4833C112.785 21.7123 113.034 21.8814 113.339 21.9959C113.646 22.1077 113.989 22.165 114.368 22.165C114.764 22.165 115.112 22.105 115.414 21.9877C115.712 21.8705 115.948 21.7069 116.117 21.4942C116.288 21.2843 116.374 21.0362 116.377 20.7526C116.374 20.4936 116.296 20.2782 116.147 20.1091C115.995 19.9401 115.784 19.7983 115.516 19.6838C115.245 19.5693 114.929 19.4657 114.57 19.3757L113.424 19.0867C112.597 18.8767 111.941 18.5578 111.462 18.1297C110.981 17.7016 110.743 17.1345 110.743 16.4229C110.743 15.8394 110.903 15.3268 111.227 14.8878C111.548 14.4489 111.988 14.108 112.544 13.8654C113.103 13.62 113.734 13.5 114.437 13.5C115.151 13.5 115.776 13.62 116.316 13.8654C116.855 14.108 117.279 14.4461 117.586 14.8769C117.893 15.3077 118.053 15.8012 118.062 16.3601H116.307Z" fill="white"/>
</g>
<defs>
<clipPath id="clip0_231_497">
<rect width="118.2" height="24" fill="white"/>
</clipPath>
</defs>
</svg>
