<svg width="191" height="24" viewBox="0 0 191 24" fill="none" xmlns="http://www.w3.org/2000/svg">
<g clip-path="url(#clip0_231_490)">
<mask id="mask0_231_490" style="mask-type:luminance" maskUnits="userSpaceOnUse" x="0" y="0" width="191" height="24">
<path d="M0 0H190.545V23.5636H0V0Z" fill="white"/>
</mask>
<g mask="url(#mask0_231_490)">
<path fill-rule="evenodd" clip-rule="evenodd" d="M19.6364 0C14.4 0 11.1273 2.61818 9.81818 7.85455C11.7818 5.23636 14.0727 4.25455 16.6909 4.90909C18.1847 5.28218 19.2524 6.36654 20.4342 7.56582C22.3593 9.52 24.5876 11.7818 29.4545 11.7818C34.6909 11.7818 37.9636 9.16364 39.2727 3.92727C37.3091 6.54545 35.0182 7.52727 32.4 6.87273C30.9062 6.49964 29.8385 5.41527 28.6567 4.216C26.7316 2.26182 24.5033 0 19.6364 0ZM9.81818 11.7818C4.58182 11.7818 1.30909 14.4 0 19.6364C1.96364 17.0182 4.25455 16.0364 6.87273 16.6909C8.36655 17.0647 9.43418 18.1484 10.616 19.3476C12.5411 21.3018 14.7695 23.5636 19.6364 23.5636C24.8727 23.5636 28.1455 20.9455 29.4545 15.7091C27.4909 18.3273 25.2 19.3091 22.5818 18.6545C21.088 18.2815 20.0204 17.1971 18.8385 15.9978C16.9135 14.0436 14.6851 11.7818 9.81818 11.7818Z" fill="white"/>
<path fill-rule="evenodd" clip-rule="evenodd" d="M58.9062 9.92873H55.4793V16.5615C55.4793 18.3302 56.64 18.3025 58.9062 18.192V20.8727C54.3186 21.4255 52.4946 20.1542 52.4946 16.5615V9.92873H49.952V7.05454H52.4946V3.34254L55.4793 2.45818V7.05454H58.9062V9.92873ZM71.9695 7.05454H74.9542V20.8727H71.9695V18.8829C70.9193 20.3476 69.2888 21.232 67.1331 21.232C63.3746 21.232 60.2517 18.0538 60.2517 13.9636C60.2517 9.84582 63.3746 6.69527 67.1331 6.69527C69.2888 6.69527 70.9193 7.57964 71.9695 9.01673V7.05454ZM67.6029 18.3855C70.0902 18.3855 71.9695 16.5338 71.9695 13.9636C71.9695 11.3935 70.0902 9.54182 67.6029 9.54182C65.1157 9.54182 63.2364 11.3935 63.2364 13.9636C63.2364 16.5338 65.1157 18.3855 67.6029 18.3855ZM79.9288 4.98182C78.8786 4.98182 78.0218 4.09745 78.0218 3.07491C78.0228 2.56946 78.224 2.08499 78.5814 1.72758C78.9388 1.37018 79.4233 1.16896 79.9288 1.168C80.4342 1.16896 80.9187 1.37018 81.2761 1.72758C81.6335 2.08499 81.8347 2.56946 81.8357 3.07491C81.8357 4.09745 80.9789 4.98182 79.9288 4.98182ZM78.4364 20.8727V7.05454H81.4211V20.8727H78.4364ZM84.8757 20.8727V0.698181H87.8604V20.8727H84.8757ZM107.233 7.05454H110.384L106.045 20.8727H103.116L100.241 11.5593L97.3397 20.8727H94.4102L90.0713 7.05454H93.2218L95.9026 16.5891L98.8044 7.05454H101.651L104.525 16.5891L107.233 7.05454ZM114.087 4.98182C113.037 4.98182 112.18 4.09745 112.18 3.07491C112.181 2.56946 112.383 2.08499 112.74 1.72758C113.097 1.37018 113.582 1.16896 114.087 1.168C114.593 1.16896 115.077 1.37018 115.435 1.72758C115.792 2.08499 115.993 2.56946 115.994 3.07491C115.994 4.09745 115.137 4.98182 114.087 4.98182ZM112.595 20.8727V7.05454H115.58V20.8727H112.595ZM126.303 6.69527C129.398 6.69527 131.609 8.79564 131.609 12.3884V20.8727H128.624V12.6924C128.624 10.592 127.408 9.48654 125.529 9.48654C123.567 9.48654 122.019 10.6473 122.019 13.4662V20.8727H119.034V7.05454H122.019V8.82327C122.931 7.38618 124.423 6.69527 126.303 6.69527ZM145.759 1.52727H148.743V20.8727H145.759V18.8829C144.708 20.3476 143.078 21.232 140.922 21.232C137.164 21.232 134.041 18.0538 134.041 13.9636C134.041 9.84582 137.164 6.69527 140.922 6.69527C143.078 6.69527 144.708 7.57964 145.759 9.01673V1.52727ZM141.392 18.3855C143.879 18.3855 145.759 16.5338 145.759 13.9636C145.759 11.3935 143.879 9.54182 141.392 9.54182C138.905 9.54182 137.025 11.3935 137.025 13.9636C137.025 16.5338 138.905 18.3855 141.392 18.3855ZM158.748 21.232C154.575 21.232 151.452 18.0538 151.452 13.9636C151.452 9.84582 154.575 6.69527 158.748 6.69527C161.456 6.69527 163.805 8.10473 164.911 10.2604L162.34 11.7527C161.732 10.4538 160.378 9.62473 158.72 9.62473C156.288 9.62473 154.436 11.4764 154.436 13.9636C154.436 16.4509 156.288 18.3025 158.72 18.3025C160.378 18.3025 161.732 17.4458 162.396 16.1745L164.966 17.6393C163.805 19.8225 161.456 21.232 158.748 21.232ZM169.885 10.8684C169.885 13.3833 177.319 11.8633 177.319 16.976C177.319 19.7396 174.915 21.232 171.93 21.232C169.167 21.232 167.177 19.9884 166.292 17.9985L168.863 16.5062C169.305 17.7498 170.41 18.496 171.93 18.496C173.257 18.496 174.279 18.0538 174.279 16.9484C174.279 14.4887 166.845 15.8705 166.845 10.9236C166.845 8.32582 169.084 6.69527 171.903 6.69527C174.169 6.69527 176.048 7.74545 177.015 9.56945L174.5 10.9789C174.003 9.90109 173.036 9.40364 171.903 9.40364C170.825 9.40364 169.885 9.87345 169.885 10.8684ZM182.625 10.8684C182.625 13.3833 190.06 11.8633 190.06 16.976C190.06 19.7396 187.655 21.232 184.671 21.232C181.907 21.232 179.917 19.9884 179.033 17.9985L181.603 16.5062C182.045 17.7498 183.151 18.496 184.671 18.496C185.997 18.496 187.02 18.0538 187.02 16.9484C187.02 14.4887 179.585 15.8705 179.585 10.9236C179.585 8.32582 181.824 6.69527 184.643 6.69527C186.909 6.69527 188.788 7.74545 189.756 9.56945L187.241 10.9789C186.743 9.90109 185.776 9.40364 184.643 9.40364C183.565 9.40364 182.625 9.87345 182.625 10.8684Z" fill="white"/>
</g>
</g>
<defs>
<clipPath id="clip0_231_490">
<rect width="190.545" height="24" fill="white"/>
</clipPath>
</defs>
</svg>
